<svg width="98" height="20" viewBox="0 0 98 20" fill="none" xmlns="http://www.w3.org/2000/svg">
<path d="M19.13 0.214945C19.1709 0.214945 19.1914 0.276357 19.1914 0.399182C19.1914 0.522006 19.1709 0.583418 19.13 0.583418C18.4954 0.583418 17.7175 0.9826 16.7963 1.78096C15.8751 2.55885 15.0563 3.54145 14.3398 4.72876L11.1464 10.0716V16.9191C11.1464 17.5537 11.1975 18.0143 11.2999 18.3009C11.4023 18.5875 11.5967 18.782 11.8833 18.8843C12.1904 18.9867 12.6714 19.0379 13.3265 19.0379C13.3879 19.0379 13.4186 19.0993 13.4186 19.2221C13.4186 19.3449 13.3879 19.4063 13.3265 19.4063C12.651 19.4063 12.1187 19.3961 11.7298 19.3756L9.42682 19.3449L7.15456 19.3756C6.74514 19.3961 6.19243 19.4063 5.49642 19.4063C5.45548 19.4063 5.43501 19.3449 5.43501 19.2221C5.43501 19.0993 5.45548 19.0379 5.49642 19.0379C6.15148 19.0379 6.63255 18.9867 6.93961 18.8843C7.24667 18.782 7.45138 18.5875 7.55374 18.3009C7.67656 17.9939 7.73798 17.5333 7.73798 16.9191V10.7165L3.25486 3.74616C2.49744 2.55885 1.86285 1.74002 1.35107 1.28966C0.859775 0.818834 0.440123 0.583418 0.0921188 0.583418C0.0307063 0.583418 0 0.522006 0 0.399182C0 0.276357 0.0307063 0.214945 0.0921188 0.214945L1.04401 0.245651C1.49437 0.286592 1.81167 0.307062 1.99591 0.307062C2.71239 0.307062 3.74616 0.286592 5.09724 0.245651L7.12385 0.214945C7.16479 0.214945 7.18526 0.276357 7.18526 0.399182C7.18526 0.522006 7.16479 0.583418 7.12385 0.583418C6.77585 0.583418 6.49949 0.665302 6.29478 0.829069C6.11054 0.992836 6.01843 1.20778 6.01843 1.4739C6.01843 1.80143 6.16172 2.19038 6.44831 2.64074L10.6551 9.27329L13.48 4.45241C14.0328 3.53122 14.3091 2.74309 14.3091 2.08803C14.3091 1.59673 14.1556 1.22825 13.8485 0.9826C13.5619 0.716479 13.1423 0.583418 12.5896 0.583418C12.5281 0.583418 12.4974 0.522006 12.4974 0.399182C12.4974 0.276357 12.5281 0.214945 12.5896 0.214945L14.217 0.245651C15.1587 0.286592 15.998 0.307062 16.7349 0.307062C17.0829 0.307062 17.5026 0.286592 17.9939 0.245651L19.13 0.214945Z" fill="#E0BEA2"/>
<path d="M40.8825 19.0379C40.9848 19.0379 41.036 19.0993 41.036 19.2221C41.036 19.3449 40.9848 19.4063 40.8825 19.4063C40.4731 19.4063 39.8385 19.3859 38.9787 19.3449C38.078 19.304 37.4332 19.2835 37.0442 19.2835C36.5324 19.2835 35.9081 19.304 35.1711 19.3449C34.4751 19.3859 33.9224 19.4063 33.513 19.4063C33.4311 19.4063 33.3902 19.3449 33.3902 19.2221C33.3902 19.0993 33.4311 19.0379 33.513 19.0379C34.0452 19.0379 34.4239 18.9867 34.6491 18.8843C34.8948 18.7615 35.0176 18.5568 35.0176 18.2702C35.0176 17.9222 34.8129 17.3388 34.4035 16.52L32.3154 12.3746H24.7617L23.5642 15.0461C23.298 15.6397 23.165 16.1924 23.165 16.7042C23.165 17.4411 23.4209 18.0143 23.9326 18.4237C24.4649 18.8332 25.1711 19.0379 26.0514 19.0379C26.1537 19.0379 26.2049 19.0993 26.2049 19.2221C26.2049 19.3449 26.1537 19.4063 26.0514 19.4063C25.6829 19.4063 25.1507 19.3859 24.4546 19.3449C23.6768 19.304 23.0012 19.2835 22.428 19.2835C21.8753 19.2835 21.21 19.304 20.4321 19.3449C19.7361 19.3859 19.1732 19.4063 18.7433 19.4063C18.6614 19.4063 18.6205 19.3449 18.6205 19.2221C18.6205 19.0993 18.6614 19.0379 18.7433 19.0379C19.3165 19.0379 19.7975 18.9253 20.1865 18.7001C20.5754 18.4545 20.9644 18.0348 21.3533 17.4411C21.7423 16.827 22.2029 15.9263 22.7351 14.739L29.3984 0.0921194C29.4393 0.0307065 29.5314 0 29.6747 0C29.8385 0 29.9306 0.0307065 29.9511 0.0921194L37.6276 15.1996C38.3441 16.653 38.9378 17.6561 39.4086 18.2088C39.8794 18.7615 40.3707 19.0379 40.8825 19.0379ZM25.1609 11.5148H31.8549L28.3236 4.51382L25.1609 11.5148Z" fill="#E0BEA2"/>
<path d="M64.5822 0.214945C64.6231 0.214945 64.6436 0.276357 64.6436 0.399182C64.6436 0.522006 64.6231 0.583418 64.5822 0.583418C63.7634 0.583418 63.1185 0.910952 62.6477 1.56602C62.1769 2.20061 61.9415 3.06039 61.9415 4.14534V19.8669C61.9415 19.9284 61.8903 19.9693 61.7879 19.9898C61.706 20.0102 61.6446 20 61.6037 19.9591L47.2025 3.56192V15.5067C47.2025 16.5916 47.4276 17.4514 47.878 18.086C48.3284 18.7206 48.9527 19.0379 49.7511 19.0379C49.792 19.0379 49.8125 19.0993 49.8125 19.2221C49.8125 19.3449 49.792 19.4063 49.7511 19.4063C49.1779 19.4063 48.7378 19.3961 48.4307 19.3756L46.7726 19.3449L44.8688 19.3756C44.5208 19.3961 44.0192 19.4063 43.3642 19.4063C43.3028 19.4063 43.2721 19.3449 43.2721 19.2221C43.2721 19.0993 43.3028 19.0379 43.3642 19.0379C44.2649 19.0379 44.9711 18.7206 45.4829 18.086C46.0151 17.4514 46.2813 16.5916 46.2813 15.5067V2.51791C45.6057 1.78096 45.0223 1.27943 44.531 1.01331C44.0602 0.726714 43.5689 0.583418 43.0571 0.583418C43.0162 0.583418 42.9957 0.522006 42.9957 0.399182C42.9957 0.276357 43.0162 0.214945 43.0571 0.214945L44.3468 0.245651C44.6129 0.266122 45.0018 0.276357 45.5136 0.276357L47.8473 0.245651C48.1339 0.22518 48.4819 0.214945 48.8913 0.214945C49.0551 0.214945 49.1779 0.255886 49.2598 0.337768C49.3417 0.419652 49.485 0.593654 49.6897 0.859775C50.0377 1.3306 50.2833 1.6479 50.4266 1.81167L61.051 14.0635V4.14534C61.051 3.03992 60.8258 2.16991 60.3754 1.53531C59.9251 0.900717 59.3007 0.583418 58.5024 0.583418C58.4614 0.583418 58.4409 0.522006 58.4409 0.399182C58.4409 0.276357 58.4614 0.214945 58.5024 0.214945L59.8227 0.245651C60.4778 0.286592 61.0305 0.307062 61.4809 0.307062C61.8903 0.307062 62.4635 0.286592 63.2004 0.245651L64.5822 0.214945Z" fill="#E0BEA2"/>
<path d="M86.8857 19.0379C86.9471 19.0379 86.9778 19.0993 86.9778 19.2221C86.9778 19.3449 86.9471 19.4063 86.8857 19.4063H83.4466C83.1191 19.4063 82.8427 19.4166 82.6176 19.4371C82.3924 19.4575 82.2081 19.4678 82.0648 19.4678C81.7373 19.4678 81.4507 19.3961 81.2051 19.2528C80.9799 19.0891 80.6933 18.8025 80.3453 18.393C80.0178 17.9836 79.4241 17.1955 78.5643 16.0287C78.462 15.8854 78.3391 15.7318 78.1959 15.5681C78.073 15.3838 77.9297 15.1791 77.766 14.9539L73.7434 9.54964L73.0679 10.2252V16.9191C73.0679 17.5537 73.1191 18.0143 73.2214 18.3009C73.3238 18.5875 73.5183 18.782 73.8049 18.8843C74.1119 18.9867 74.593 19.0379 75.2481 19.0379C75.3299 19.0379 75.3709 19.0993 75.3709 19.2221C75.3709 19.3449 75.3299 19.4063 75.2481 19.4063C74.5725 19.4063 74.0403 19.3961 73.6513 19.3756L71.3484 19.3449L69.0761 19.3756C68.6667 19.3961 68.114 19.4063 67.418 19.4063C67.377 19.4063 67.3566 19.3449 67.3566 19.2221C67.3566 19.0993 67.377 19.0379 67.418 19.0379C68.073 19.0379 68.5541 18.9867 68.8612 18.8843C69.1682 18.782 69.3729 18.5875 69.4753 18.3009C69.5981 17.9939 69.6595 17.5333 69.6595 16.9191V2.70215C69.6595 2.08803 69.5981 1.63767 69.4753 1.35108C69.3729 1.06448 69.1682 0.87001 68.8612 0.767656C68.5746 0.644831 68.114 0.583418 67.4794 0.583418C67.418 0.583418 67.3873 0.522006 67.3873 0.399182C67.3873 0.276357 67.418 0.214945 67.4794 0.214945L69.1068 0.245651C70.0485 0.286592 70.7957 0.307062 71.3484 0.307062C71.9625 0.307062 72.7404 0.286592 73.682 0.245651L75.2481 0.214945C75.3095 0.214945 75.3402 0.276357 75.3402 0.399182C75.3402 0.522006 75.3095 0.583418 75.2481 0.583418C74.6135 0.583418 74.1426 0.644831 73.8356 0.767656C73.549 0.890482 73.3443 1.10543 73.2214 1.41249C73.1191 1.69908 73.0679 2.14944 73.0679 2.76356V9.27329L78.8407 3.37769C79.4343 2.78403 79.7312 2.24156 79.7312 1.75026C79.7312 1.38178 79.5674 1.09519 79.2399 0.890481C78.9123 0.685773 78.4517 0.583418 77.8581 0.583418C77.7967 0.583418 77.766 0.522006 77.766 0.399182C77.766 0.276357 77.7967 0.214945 77.8581 0.214945L79.3013 0.245651C80.202 0.286592 81.0413 0.307062 81.8192 0.307062C82.6585 0.307062 83.5285 0.286592 84.4292 0.245651L85.811 0.214945C85.8724 0.214945 85.9031 0.276357 85.9031 0.399182C85.9031 0.522006 85.8724 0.583418 85.811 0.583418C84.8693 0.583418 83.8356 0.859775 82.7097 1.41249C81.5838 1.94473 80.5602 2.66121 79.639 3.56192L76.1692 7.09314L80.7138 13.2344C82.0444 15.1382 83.0372 16.4893 83.6923 17.2876C84.3678 18.0655 84.9103 18.5568 85.3197 18.7615C85.7291 18.9458 86.2511 19.0379 86.8857 19.0379Z" fill="#E0BEA2"/>
<path d="M95.1234 16.9191C95.1234 17.5537 95.1746 18.0143 95.2769 18.3009C95.3793 18.5875 95.5738 18.782 95.8603 18.8843C96.1674 18.9867 96.6485 19.0379 97.3035 19.0379C97.365 19.0379 97.3957 19.0993 97.3957 19.2221C97.3957 19.3449 97.365 19.4063 97.3035 19.4063C96.628 19.4063 96.0958 19.3961 95.7068 19.3756L93.3731 19.3449L91.1009 19.3756C90.6915 19.3961 90.1387 19.4063 89.4427 19.4063C89.4018 19.4063 89.3813 19.3449 89.3813 19.2221C89.3813 19.0993 89.4018 19.0379 89.4427 19.0379C90.0978 19.0379 90.5789 18.9867 90.8859 18.8843C91.193 18.782 91.3977 18.5875 91.5001 18.3009C91.6229 17.9939 91.6843 17.5333 91.6843 16.9191V2.70215C91.6843 2.08803 91.6229 1.63767 91.5001 1.35108C91.3977 1.06448 91.193 0.87001 90.8859 0.767656C90.5789 0.644831 90.0978 0.583418 89.4427 0.583418C89.4018 0.583418 89.3813 0.522006 89.3813 0.399182C89.3813 0.276357 89.4018 0.214945 89.4427 0.214945L91.1009 0.245651C92.0425 0.286592 92.8 0.307062 93.3731 0.307062C94.0077 0.307062 94.7959 0.286592 95.7375 0.245651L97.3035 0.214945C97.365 0.214945 97.3957 0.276357 97.3957 0.399182C97.3957 0.522006 97.365 0.583418 97.3035 0.583418C96.6689 0.583418 96.1981 0.644831 95.8911 0.767656C95.584 0.890482 95.3793 1.10543 95.2769 1.41249C95.1746 1.69908 95.1234 2.14944 95.1234 2.76356V16.9191Z" fill="#E0BEA2"/>
</svg>
