<svg width="17" height="17" viewBox="0 0 17 17" fill="none" xmlns="http://www.w3.org/2000/svg">
<path d="M8.50001 6.12501C7.87012 6.12501 7.26603 6.37523 6.82063 6.82063C6.37523 7.26603 6.12501 7.87012 6.12501 8.50001C6.12501 9.1299 6.37523 9.73399 6.82063 10.1794C7.26603 10.6248 7.87012 10.875 8.50001 10.875C9.1299 10.875 9.73399 10.6248 10.1794 10.1794C10.6248 9.73399 10.875 9.1299 10.875 8.50001C10.875 7.87012 10.6248 7.26603 10.1794 6.82063C9.73399 6.37523 9.1299 6.12501 8.50001 6.12501ZM8.50001 4.54168C9.54983 4.54168 10.5566 4.95871 11.299 5.70105C12.0413 6.44338 12.4583 7.4502 12.4583 8.50001C12.4583 9.54983 12.0413 10.5566 11.299 11.299C10.5566 12.0413 9.54983 12.4583 8.50001 12.4583C7.4502 12.4583 6.44338 12.0413 5.70105 11.299C4.95871 10.5566 4.54168 9.54983 4.54168 8.50001C4.54168 7.4502 4.95871 6.44338 5.70105 5.70105C6.44338 4.95871 7.4502 4.54168 8.50001 4.54168ZM13.6458 4.34376C13.6458 4.60621 13.5416 4.85792 13.356 5.0435C13.1704 5.22908 12.9187 5.33334 12.6563 5.33334C12.3938 5.33334 12.1421 5.22908 11.9565 5.0435C11.7709 4.85792 11.6667 4.60621 11.6667 4.34376C11.6667 4.08131 11.7709 3.8296 11.9565 3.64402C12.1421 3.45844 12.3938 3.35418 12.6563 3.35418C12.9187 3.35418 13.1704 3.45844 13.356 3.64402C13.5416 3.8296 13.6458 4.08131 13.6458 4.34376ZM8.50001 2.16668C6.54143 2.16668 6.22159 2.17222 5.31039 2.21259C4.68972 2.24189 4.2733 2.32501 3.88697 2.47543C3.54339 2.60843 3.29559 2.76755 3.03197 3.03197C2.78418 3.27137 2.59366 3.56364 2.47464 3.88697C2.32422 4.27489 2.24109 4.69051 2.21259 5.31039C2.17143 6.18439 2.16668 6.48997 2.16668 8.50001C2.16668 10.4586 2.17222 10.7784 2.21259 11.6896C2.24189 12.3095 2.32501 12.7267 2.47464 13.1123C2.60922 13.4566 2.76755 13.7044 3.03039 13.9673C3.29718 14.2333 3.54497 14.3924 3.88539 14.5238C4.27647 14.675 4.69289 14.7589 5.31039 14.7874C6.18439 14.8286 6.48997 14.8333 8.50001 14.8333C10.4586 14.8333 10.7784 14.8278 11.6896 14.7874C12.3087 14.7581 12.7259 14.675 13.1123 14.5254C13.4551 14.3916 13.7044 14.2325 13.9673 13.9696C14.2341 13.7028 14.3932 13.4551 14.5246 13.1146C14.675 12.7243 14.7589 12.3071 14.7874 11.6896C14.8286 10.8156 14.8333 10.5101 14.8333 8.50001C14.8333 6.54143 14.8278 6.22159 14.7874 5.31039C14.7581 4.6913 14.675 4.2733 14.5246 3.88697C14.4053 3.56397 14.2151 3.27181 13.9681 3.03197C13.7288 2.78406 13.4365 2.59352 13.1131 2.47464C12.7251 2.32422 12.3087 2.24109 11.6896 2.21259C10.8156 2.17143 10.5101 2.16668 8.50001 2.16668ZM8.50001 0.583344C10.651 0.583344 10.9193 0.59126 11.7633 0.630843C12.6064 0.670427 13.1803 0.802635 13.6854 0.998969C14.2079 1.20005 14.6481 1.47239 15.0883 1.91176C15.4908 2.30751 15.8023 2.78623 16.0011 3.31459C16.1966 3.81889 16.3296 4.39364 16.3692 5.23676C16.4064 6.08068 16.4167 6.34905 16.4167 8.50001C16.4167 10.651 16.4088 10.9193 16.3692 11.7633C16.3296 12.6064 16.1966 13.1803 16.0011 13.6854C15.8029 14.2141 15.4913 14.6929 15.0883 15.0883C14.6924 15.4907 14.2137 15.8021 13.6854 16.0011C13.1811 16.1966 12.6064 16.3296 11.7633 16.3692C10.9193 16.4064 10.651 16.4167 8.50001 16.4167C6.34905 16.4167 6.08068 16.4088 5.23676 16.3692C4.39364 16.3296 3.81968 16.1966 3.31459 16.0011C2.78602 15.8027 2.30722 15.4912 1.91176 15.0883C1.50912 14.6926 1.19762 14.2138 0.998969 13.6854C0.802635 13.1811 0.670427 12.6064 0.630843 11.7633C0.593635 10.9193 0.583344 10.651 0.583344 8.50001C0.583344 6.34905 0.59126 6.08068 0.630843 5.23676C0.670427 4.39284 0.802635 3.81968 0.998969 3.31459C1.19707 2.7859 1.50865 2.30706 1.91176 1.91176C2.30733 1.50898 2.7861 1.19746 3.31459 0.998969C3.81968 0.802635 4.39284 0.670427 5.23676 0.630843C6.08068 0.593635 6.34905 0.583344 8.50001 0.583344Z" fill="#E0BEA2"/>
</svg>
